<svg width="20" height="21" viewBox="0 0 20 21" fill="none" xmlns="http://www.w3.org/2000/svg">
<path d="M9.66163 5.0272C6.92056 5.0272 4.7096 7.38942 4.7096 10.318C4.7096 13.2466 6.92056 15.6088 9.66163 15.6088C12.4027 15.6088 14.6137 13.2466 14.6137 10.318C14.6137 7.38942 12.4027 5.0272 9.66163 5.0272ZM9.66163 13.7577C7.89028 13.7577 6.44216 12.2152 6.44216 10.318C6.44216 8.42088 7.88597 6.8783 9.66163 6.8783C11.4373 6.8783 12.8811 8.42088 12.8811 10.318C12.8811 12.2152 11.433 13.7577 9.66163 13.7577ZM15.9713 4.81078C15.9713 5.49688 15.4541 6.04484 14.8162 6.04484C14.1741 6.04484 13.6612 5.49228 13.6612 4.81078C13.6612 4.12928 14.1784 3.57671 14.8162 3.57671C15.4541 3.57671 15.9713 4.12928 15.9713 4.81078ZM19.2511 6.06326C19.1778 4.41017 18.8244 2.94587 17.6909 1.73943C16.5617 0.532996 15.1912 0.155409 13.6439 0.0725243C12.0493 -0.0241748 7.26966 -0.0241748 5.67501 0.0725243C4.13208 0.150805 2.76154 0.528391 1.62805 1.73483C0.494557 2.94126 0.145458 4.40556 0.0678803 6.05866C-0.0226268 7.7624 -0.0226268 12.869 0.0678803 14.5728C0.141148 16.2259 0.494557 17.6902 1.62805 18.8966C2.76154 20.103 4.12777 20.4806 5.67501 20.5635C7.26966 20.6602 12.0493 20.6602 13.6439 20.5635C15.1912 20.4852 16.5617 20.1077 17.6909 18.8966C18.8201 17.6902 19.1735 16.2259 19.2511 14.5728C19.3416 12.869 19.3416 7.76701 19.2511 6.06326ZM17.191 16.4009C16.8548 17.3034 16.204 17.9987 15.355 18.3625C14.0835 18.9012 11.0666 18.7769 9.66163 18.7769C8.25662 18.7769 5.2354 18.8966 3.9683 18.3625C3.12357 18.0033 2.47278 17.308 2.1323 16.4009C1.62805 15.0425 1.74442 11.8192 1.74442 10.318C1.74442 8.81688 1.63236 5.58898 2.1323 4.23519C2.46847 3.33266 3.11926 2.63735 3.9683 2.27358C5.23971 1.73483 8.25662 1.85915 9.66163 1.85915C11.0666 1.85915 14.0879 1.73943 15.355 2.27358C16.1997 2.63275 16.8505 3.32806 17.191 4.23519C17.6952 5.59358 17.5788 8.81688 17.5788 10.318C17.5788 11.8192 17.6952 15.0471 17.191 16.4009Z" fill="black"/>
</svg>
