<svg width="21" height="21" viewBox="0 0 21 21" fill="none" xmlns="http://www.w3.org/2000/svg">
<path d="M5.15843 20.636H1.154V6.85841H5.15843V20.636ZM3.15406 4.97902C1.87358 4.97902 0.834961 3.84585 0.834961 2.47776C0.834961 1.82062 1.07929 1.19039 1.51421 0.72572C1.94913 0.261049 2.539 0 3.15406 0C3.76913 0 4.359 0.261049 4.79392 0.72572C5.22883 1.19039 5.47317 1.82062 5.47317 2.47776C5.47317 3.84585 4.43412 4.97902 3.15406 4.97902ZM20.1457 20.636H16.1499V13.9292C16.1499 12.3308 16.1197 10.2809 14.0679 10.2809C11.986 10.2809 11.6669 12.0175 11.6669 13.814V20.636H7.66681V6.85841H11.5074V8.73781H11.5634C12.0981 7.65531 13.404 6.51294 15.3523 6.51294C19.405 6.51294 20.15 9.36427 20.15 13.0678V20.636H20.1457Z" fill="black"/>
</svg>
