<svg width="25" height="21" viewBox="0 0 25 21" fill="none" xmlns="http://www.w3.org/2000/svg">
<path d="M22.0066 5.14287C22.0217 5.36857 22.0217 5.59431 22.0217 5.82001C22.0217 12.704 17.1176 20.636 8.15435 20.636C5.39295 20.636 2.82774 19.7815 0.669922 18.2984C1.06226 18.3467 1.43947 18.3629 1.8469 18.3629C4.12539 18.3629 6.22288 17.5407 7.89782 16.1381C5.7551 16.0897 3.95944 14.5903 3.34075 12.5267C3.64257 12.5751 3.94434 12.6073 4.26125 12.6073C4.69884 12.6073 5.13647 12.5428 5.54386 12.43C3.31061 11.9463 1.63561 9.85048 1.63561 7.31934V7.25487C2.28444 7.6418 3.03898 7.88363 3.83867 7.91583C2.52588 6.98074 1.66581 5.38469 1.66581 3.57903C1.66581 2.61173 1.90719 1.72503 2.32973 0.951168C4.72898 4.11106 8.33541 6.17463 12.3794 6.40038C12.3039 6.01345 12.2587 5.61044 12.2587 5.20738C12.2587 2.33765 14.4316 0 17.1326 0C18.5359 0 19.8034 0.628753 20.6937 1.64443C21.7952 1.41874 22.8515 0.983425 23.7871 0.386929C23.4249 1.5961 22.6553 2.61178 21.6444 3.25661C22.6252 3.14381 23.5758 2.85355 24.451 2.45055C23.7872 3.48231 22.9572 4.40122 22.0066 5.14287Z" fill="black"/>
</svg>
